<?xml version="1.0" encoding="utf-8"?>
<!-- Generator: Adobe Illustrator 27.2.0, SVG Export Plug-In . SVG Version: 6.00 Build 0)  -->
<svg version="1.1" id="Design" xmlns="http://www.w3.org/2000/svg" xmlns:xlink="http://www.w3.org/1999/xlink" x="0px" y="0px"
	 viewBox="0 0 10080 2970" style="enable-background:new 0 0 10080 2970;" xml:space="preserve">
<style type="text/css">
	.st0{fill:#9A1A24;}
</style>
<g>
	<g>
		<rect x="990" y="1003.8" class="st0" width="165" height="962.5"/>
		<polygon class="st0" points="1980,1966.2 2475,1966.2 2475,1815 2145,1815 2145,1553.8 2433.8,1553.8 2433.8,1402.5 2145,1402.5 
			2145,1155 2475,1155 2475,1003.8 1980,1003.8 		"/>
		<path class="st0" d="M1306.2,1285.6c0,309.4,357.5,220,357.5,391.9v41.2c0,55-13.8,110-96.2,110s-96.2-55-96.2-110v-96.2h-165v110
			c0,137.5,96.2,247.5,261.2,247.5s261.2-110,261.2-247.5v-68.8c0-302.5-357.5-220-357.5-391.9v-20.6c0-55,13.8-110,96.2-110
			s96.2,55,96.2,110v96.2h165v-110c0-137.5-96.2-247.5-261.2-247.5s-261.2,110-261.2,247.5V1285.6z"/>
		<path class="st0" d="M2777.5,1450.6V1155h96.2c82.5,0,96.2,55,96.2,110v75.6c0,55-13.8,110-96.2,110H2777.5z M2612.5,1966.2h165
			v-364.4h96.2c165,0,261.2-110,261.2-247.5v-103.1c0-137.5-96.2-247.5-261.2-247.5h-261.2V1966.2z"/>
	</g>
	<g>
		<path class="st0" d="M3594.1,1423.7h-72v-420h72V1423.7z"/>
		<path class="st0" d="M3666.1,1003.8h66l105,251.4h3v-251.4h72v420h-66l-105-251.4h-3v251.4h-72V1003.8z"/>
		<path class="st0" d="M4092.1,997.8c72,0,114,48,114,108v48h-72v-42c0-24-6-48-42-48c-36,0-42,24-42,48v9c0,75,156,39,156,171v30
			c0,60-42,108-114,108c-72,0-114-48-114-108v-48h72v42c0,24,6,48,42,48c36,0,42-24,42-48v-18c0-75-156-36-156-171v-21
			C3978.1,1045.8,4020.1,997.8,4092.1,997.8z"/>
		<path class="st0" d="M4242.1,1003.8h216v66h-72v354h-72v-354h-72V1003.8z"/>
		<path class="st0" d="M4578.1,1423.7h-72v-420h72V1423.7z"/>
		<path class="st0" d="M4626.1,1003.8h216v66h-72v354h-72v-354h-72V1003.8z"/>
		<path class="st0" d="M5004.1,1429.7c-72,0-114-48-114-108v-318h72v312c0,24,6,48,42,48c36,0,42-24,42-48v-312h72v318
			C5118.1,1381.7,5076.1,1429.7,5004.1,1429.7z"/>
		<path class="st0" d="M5166.1,1003.8h216v66h-72v354h-72v-354h-72V1003.8z"/>
		<path class="st0" d="M5538.1,1429.7c-72,0-114-48-114-108v-216c0-60,42-108,114-108c72,0,114,48,114,108v216
			C5652,1381.7,5610.1,1429.7,5538.1,1429.7z M5538.1,1363.7c36,0,42-24,42-48v-204c0-24-6-48-42-48c-36,0-42,24-42,48v204
			C5496.1,1339.7,5502.1,1363.7,5538.1,1363.7z"/>
		<path class="st0" d="M5916,997.8c72,0,114,48,114,108v48h-72v-42c0-24-6-48-42-48c-36,0-42,24-42,48v9c0,75,156,39,156,171v30
			c0,60-42,108-114,108c-72,0-114-48-114-108v-48h72v42c0,24,6,48,42,48c36,0,42-24,42-48v-18c0-75-156-36-156-171v-21
			C5802,1045.8,5844,997.8,5916,997.8z"/>
		<path class="st0" d="M6210,1429.7c-72,0-114-48-114-108v-318h72v312c0,24,6,48,42,48c36,0,42-24,42-48v-312h72v318
			C6324,1381.7,6282,1429.7,6210,1429.7z"/>
		<path class="st0" d="M6396,1003.8h114c72,0,114,48,114,108v45c0,60-42,108-114,108h-42v159h-72V1003.8z M6510,1198.7
			c36,0,42-24,42-48v-33c0-24-6-48-42-48h-42v129H6510z"/>
		<path class="st0" d="M6672,1003.8h216v66h-144v108h126v66h-126v114h144v66h-216V1003.8z"/>
		<path class="st0" d="M7176,1111.7v45c0,42-20.4,78-57.6,96l75.6,171h-75l-69.6-159H7020v159h-72v-420h114
			C7134,1003.8,7176,1051.8,7176,1111.7z M7062,1198.7c36,0,42-24,42-48v-33c0-24-6-48-42-48h-42v129H7062z"/>
		<path class="st0" d="M7320,1423.7h-72v-420h72V1423.7z"/>
		<path class="st0" d="M7500,1429.7c-72,0-114-48-114-108v-216c0-60,42-108,114-108c72,0,114,48,114,108v216
			C7614,1381.7,7572,1429.7,7500,1429.7z M7500,1363.7c36,0,42-24,42-48v-204c0-24-6-48-42-48c-36,0-42,24-42,48v204
			C7458,1339.7,7464,1363.7,7500,1363.7z"/>
		<path class="st0" d="M7908,1111.7v45c0,42-20.4,78-57.6,96l75.6,171h-75l-69.6-159H7752v159h-72v-420h114
			C7866,1003.8,7908,1051.8,7908,1111.7z M7794,1198.7c36,0,42-24,42-48v-33c0-24-6-48-42-48h-42v129H7794z"/>
	</g>
	<path class="st0" d="M3750.1,1654.3v204c0,60-42,108-114,108h-114v-420h114C3708.1,1546.3,3750.1,1594.3,3750.1,1654.3z
		 M3636.1,1900.2c36,0,42-24,42-48v-192c0-24-6-48-42-48h-42v288H3636.1z"/>
	<path class="st0" d="M3816.1,1546.3h216v66h-144v108h126v66h-126v114h144v66h-216V1546.3z"/>
	<path class="st0" d="M4182.1,1546.3h216v66h-144v108h126v66h-126v114h144v66h-216V1546.3z"/>
	<path class="st0" d="M4458.1,1546.3h66l105,251.4h3v-251.4h72v420h-66l-105-251.4h-3v251.4h-72V1546.3z"/>
	<path class="st0" d="M4998,1750.3v114c0,60-42,108-114,108c-72,0-114-48-114-108v-216c0-60,42-108,114-108c72,0,114,48,114,108v48
		h-72v-42c0-24-6-48-42-48c-36,0-42,24-42,48v204c0,24,6,48,42,48c36,0,42-24,42-48v-42h-42v-66H4998z"/>
	<path class="st0" d="M5064.1,1546.3h216v66h-144v108h126v66h-126v114h144v66h-216V1546.3z"/>
	<path class="st0" d="M5340,1546.3h66l105,251.4h3v-251.4h72v420h-66l-105-251.4h-3v251.4h-72V1546.3z"/>
	<path class="st0" d="M5658,1546.3h72v174h102v-174h72v420h-72v-180h-102v180h-72V1546.3z"/>
	<path class="st0" d="M6021,1966.2h-72l105-420h66l105,420h-72l-16.8-84h-98.4L6021,1966.2z M6123,1816.3l-34.2-168h-3.6l-34.2,168
		H6123z"/>
	<path class="st0" d="M6498,1654.3v45c0,42-20.4,78-57.6,96l75.6,171h-75l-69.6-159H6342v159h-72v-420h114
		C6456,1546.3,6498,1594.3,6498,1654.3z M6384,1741.3c36,0,42-24,42-48v-33c0-24-6-48-42-48h-42v129H6384z"/>
	<path class="st0" d="M6642,1966.2h-72v-420h72V1966.2z"/>
	<path class="st0" d="M6759,1966.2h-72l105-420h66l105,420h-72l-16.8-84h-98.4L6759,1966.2z M6861,1816.3l-34.2-168h-3.6l-34.2,168
		H6861z"/>
	<path class="st0" d="M7326,1654.3v204c0,60-42,108-114,108h-114v-420h114C7284,1546.3,7326,1594.3,7326,1654.3z M7212,1900.2
		c36,0,42-24,42-48v-192c0-24-6-48-42-48h-42v288H7212z"/>
	<path class="st0" d="M7500,1972.2c-72,0-114-48-114-108v-216c0-60,42-108,114-108c72,0,114,48,114,108v216
		C7614,1924.2,7572,1972.2,7500,1972.2z M7500,1906.2c36,0,42-24,42-48v-204c0-24-6-48-42-48c-36,0-42,24-42,48v204
		C7458,1882.3,7464,1906.2,7500,1906.2z"/>
	<path class="st0" d="M7770,1546.3h114c72,0,114,48,114,108v45c0,60-42,108-114,108h-42v159h-72V1546.3z M7884,1741.3
		c36,0,42-24,42-48v-33c0-24-6-48-42-48h-42v129H7884z"/>
	<path class="st0" d="M8160,1972.2c-72,0-114-48-114-108v-216c0-60,42-108,114-108c72,0,114,48,114,108v216
		C8274,1924.2,8232,1972.2,8160,1972.2z M8160,1906.2c36,0,42-24,42-48v-204c0-24-6-48-42-48c-36,0-42,24-42,48v204
		C8118,1882.3,8124,1906.2,8160,1906.2z"/>
	<path class="st0" d="M8568,1654.3v45c0,42-20.4,78-57.6,96l75.6,171h-75l-69.6-159H8412v159h-72v-420h114
		C8526,1546.3,8568,1594.3,8568,1654.3z M8454,1741.3c36,0,42-24,42-48v-33c0-24-6-48-42-48h-42v129H8454z"/>
	<path class="st0" d="M8604,1546.3h216v66h-72v354h-72v-354h-72V1546.3z"/>
	<path class="st0" d="M8976,1972.2c-72,0-114-48-114-108v-216c0-60,42-108,114-108c72,0,114,48,114,108v216
		C9090,1924.2,9048,1972.2,8976,1972.2z M8976,1906.2c36,0,42-24,42-48v-204c0-24-6-48-42-48c-36,0-42,24-42,48v204
		C8934,1882.3,8940,1906.2,8976,1906.2z"/>
</g>
</svg>
